<svg width="55" height="55" viewBox="0 0 55 55" fill="none" xmlns="http://www.w3.org/2000/svg">
<path d="M1.07054 18.819C-0.0729961 14.5513 2.45966 10.1646 6.72739 9.02108L36.3994 1.07048C40.6672 -0.0730571 45.0538 2.4596 46.1974 6.72733L54.148 36.3994C55.2915 40.6671 52.7589 45.0538 48.4911 46.1973L18.8191 54.1479C14.5514 55.2915 10.1647 52.7588 9.02114 48.4911L1.07054 18.819Z" fill="#F88C3D"/>
<path d="M26.8475 35.9114L33.2434 24.8333L27.9815 21.7954L21.5856 32.8734C21.4976 33.0261 21.4526 33.1997 21.4553 33.3759L21.8077 38.5647L26.4766 36.2758C26.631 36.1901 26.7594 36.0639 26.8475 35.9114ZM35.3082 21.2571C35.5662 20.81 35.6361 20.2787 35.5025 19.7801C35.3689 19.2815 35.0427 18.8564 34.5957 18.5983L32.7051 17.5067C32.258 17.2487 31.7268 17.1788 31.2282 17.3124C30.7296 17.446 30.3045 17.7721 30.0463 18.2191L28.9547 20.1098L34.2166 23.1477L35.3082 21.2571Z" fill="white"/>
</svg>
