<svg width="55" height="55" viewBox="0 0 55 55" fill="none" xmlns="http://www.w3.org/2000/svg">
<path d="M1.07054 18.819C-0.0729961 14.5513 2.45966 10.1646 6.72739 9.02108L36.3994 1.07048C40.6672 -0.0730571 45.0538 2.4596 46.1974 6.72733L54.148 36.3994C55.2915 40.6671 52.7589 45.0538 48.4911 46.1973L18.8191 54.1479C14.5514 55.2915 10.1647 52.7588 9.02114 48.4911L1.07054 18.819Z" fill="#23BDEE"/>
<path d="M23.0492 28.1553L24.9295 27.6515L25.4334 29.5318L23.553 30.0357L23.0492 28.1553ZM24.0569 31.916L25.9372 31.4122L26.441 33.2925L24.5607 33.7963L24.0569 31.916ZM26.8099 27.1477L28.6902 26.6438L29.194 28.5242L27.3137 29.028L26.8099 27.1477ZM27.8175 30.9083L29.6979 30.4045L30.2017 32.2848L28.3214 32.7887L27.8175 30.9083ZM30.5705 26.14L32.4509 25.6362L32.9547 27.5165L31.0744 28.0203L30.5705 26.14ZM31.5782 29.9007L33.4585 29.3968L33.9624 31.2772L32.082 31.781L31.5782 29.9007Z" fill="white"/>
<path d="M23.9399 39.001L37.1023 35.4742C38.1393 35.1963 38.7567 34.127 38.4788 33.09L34.952 19.9277C34.6741 18.8906 33.6048 18.2733 32.5678 18.5512L30.6874 19.055L30.1836 17.1747L28.3033 17.6785L28.8071 19.5588L23.1661 21.0703L22.6623 19.19L20.7819 19.6938L21.2858 21.5742L19.4054 22.078C18.3684 22.3559 17.7511 23.4252 18.0289 24.4622L21.5558 37.6245C21.8336 38.6615 22.9029 39.2789 23.9399 39.001ZM33.5755 22.3118L36.5994 33.5936L23.4361 37.1207L20.4131 25.8387L33.5755 22.3118Z" fill="white"/>
</svg>
