<svg width="50" height="50" viewBox="0 0 50 50" fill="none" xmlns="http://www.w3.org/2000/svg">
<path d="M3.3619 7.96991C3.74553 3.56832 7.62472 0.311123 12.0263 0.694755L42.629 3.36202C47.0306 3.74565 50.2878 7.62484 49.9042 12.0264L47.2369 42.6292C46.8533 47.0308 42.9741 50.288 38.5725 49.9043L7.96979 47.2371C3.5682 46.8534 0.311001 42.9742 0.694633 38.5726L3.3619 7.96991Z" fill="#7252A4"/>
<path d="M26.1445 15.6032C20.798 15.1372 16.0691 19.1079 15.6031 24.4544C15.1371 29.801 19.1078 34.5299 24.4543 34.9959C29.8009 35.4619 34.5297 31.4912 34.9957 26.1447C35.4617 20.7981 31.4911 16.0692 26.1445 15.6032ZM24.6233 33.0566C20.3463 32.6838 17.1696 28.9005 17.5424 24.6235C17.9151 20.3464 21.6985 17.1697 25.9755 17.5425C30.2525 17.9153 33.4292 21.6986 33.0565 25.9756C32.6837 30.2527 28.9004 33.4294 24.6233 33.0566Z" fill="white"/>
<path d="M21.968 29.8942L30.1476 25.7221L22.8131 20.1979L21.968 29.8942Z" fill="white"/>
</svg>
