<svg width="21" height="21" viewBox="0 0 21 21" fill="none" xmlns="http://www.w3.org/2000/svg">
<path fill-rule="evenodd" clip-rule="evenodd" d="M5.29171 0.083374C3.91037 0.083374 2.58561 0.632108 1.60886 1.60886C0.632108 2.58561 0.083374 3.91037 0.083374 5.29171V15.7084C0.083374 17.0897 0.632108 18.4145 1.60886 19.3912C2.58561 20.368 3.91037 20.9167 5.29171 20.9167H15.7084C17.0897 20.9167 18.4145 20.368 19.3912 19.3912C20.368 18.4145 20.9167 17.0897 20.9167 15.7084V5.29171C20.9167 3.91037 20.368 2.58561 19.3912 1.60886C18.4145 0.632108 17.0897 0.083374 15.7084 0.083374H5.29171ZM14.3855 9.12921C14.479 9.02935 14.552 8.91204 14.6002 8.78397C14.6485 8.65591 14.671 8.5196 14.6666 8.38283C14.6621 8.24605 14.6308 8.1115 14.5743 7.98684C14.5179 7.86218 14.4374 7.74986 14.3375 7.65629C14.2377 7.56273 14.1204 7.48974 13.9923 7.44151C13.8642 7.39328 13.7279 7.37075 13.5912 7.3752C13.4544 7.37965 13.3198 7.41099 13.1952 7.46745C13.0705 7.5239 12.9582 7.60435 12.8646 7.70421L9.65317 11.1313L8.06671 9.72192C7.85885 9.54912 7.59197 9.46389 7.32244 9.48423C7.0529 9.50456 6.80183 9.62887 6.62225 9.8309C6.44268 10.0329 6.34866 10.2968 6.36007 10.5669C6.37147 10.837 6.4874 11.092 6.68337 11.2782L9.02713 13.3615C9.22992 13.5416 9.49499 13.6356 9.76597 13.6233C10.0369 13.6111 10.2925 13.4936 10.4782 13.2959L14.3844 9.12921H14.3855Z" fill="#245D51"/>
</svg>
