<svg width="28" height="28" viewBox="0 0 28 28" fill="none" xmlns="http://www.w3.org/2000/svg">
<g id="bx:bxl-google-plus-circle">
<path id="Vector" d="M25.6832 13.9697C25.6622 7.53904 20.4413 2.33337 14.0095 2.33337C7.57533 2.33337 2.35566 7.53904 2.33466 13.9697L2.3335 13.9394V14.07L2.33466 14.0432C2.3545 20.475 7.57416 25.683 14.0095 25.683C20.4425 25.683 25.6622 20.4774 25.6832 14.0467L25.6843 14.077V13.9394L25.6832 13.9697ZM10.828 19.3165C7.90083 19.3165 5.522 16.9377 5.522 14.0094C5.522 11.081 7.90083 8.70221 10.828 8.70221C12.263 8.70221 13.4623 9.22837 14.3817 10.0882L12.8708 11.5524C12.4917 11.1919 11.822 10.7672 10.828 10.7672C9.07216 10.7672 7.6395 12.2267 7.6395 14.0164C7.6395 15.8049 9.07333 17.2644 10.828 17.2644C12.8603 17.2644 13.6093 15.8574 13.747 15.0244H10.8257V13.0434H15.7898C15.8668 13.377 15.924 13.6897 15.924 14.1307C15.924 17.1605 13.8917 19.3165 10.828 19.3165ZM23.029 14.539H20.9068V16.6612H19.3155V14.539H17.1922V12.9477H19.3155V10.8244H20.9068V12.9477H23.029V14.539Z" fill="#CB8461"/>
</g>
</svg>
