<svg width="25" height="25" viewBox="0 0 25 25" fill="none" xmlns="http://www.w3.org/2000/svg">
<g id="akar-icons:linkedin-fill">
<g id="Group">
<path id="Vector" fill-rule="evenodd" clip-rule="evenodd" d="M1.0415 2.95621C1.0415 2.44843 1.24322 1.96145 1.60227 1.6024C1.96133 1.24334 2.44831 1.04163 2.95609 1.04163H22.0415C22.2931 1.04122 22.5424 1.09044 22.775 1.18649C23.0076 1.28254 23.2189 1.42351 23.397 1.60135C23.575 1.77919 23.7162 1.9904 23.8125 2.22289C23.9088 2.45537 23.9583 2.70457 23.9582 2.95621V22.0416C23.9584 22.2933 23.9091 22.5426 23.8129 22.7752C23.7168 23.0078 23.5757 23.2191 23.3978 23.3972C23.2199 23.5752 23.0086 23.7164 22.776 23.8127C22.5435 23.9089 22.2942 23.9584 22.0425 23.9583H2.95609C2.70457 23.9583 2.45552 23.9087 2.22317 23.8125C1.99081 23.7162 1.7797 23.5751 1.6019 23.3972C1.42411 23.2193 1.2831 23.0081 1.18694 22.7757C1.09079 22.5433 1.04137 22.2942 1.0415 22.0427V2.95621ZM10.1123 9.77913H13.2155V11.3375C13.6634 10.4416 14.8092 9.63538 16.5311 9.63538C19.8321 9.63538 20.6144 11.4198 20.6144 14.6937V20.7583H17.2738V15.4395C17.2738 13.575 16.8259 12.5229 15.6884 12.5229C14.1103 12.5229 13.454 13.6573 13.454 15.4395V20.7583H10.1123V9.77913ZM4.38317 20.6156H7.72484V9.63538H4.38317V20.6145V20.6156ZM8.20296 6.05413C8.20926 6.34025 8.15835 6.62474 8.05321 6.89091C7.94807 7.15709 7.79083 7.39958 7.5907 7.60416C7.39058 7.80874 7.15161 7.97129 6.88781 8.08226C6.62402 8.19323 6.34071 8.2504 6.05453 8.2504C5.76834 8.2504 5.48503 8.19323 5.22124 8.08226C4.95744 7.97129 4.71847 7.80874 4.51835 7.60416C4.31822 7.39958 4.16098 7.15709 4.05584 6.89091C3.9507 6.62474 3.89979 6.34025 3.90609 6.05413C3.91845 5.49252 4.15024 4.95808 4.5518 4.56526C4.95336 4.17244 5.49278 3.95248 6.05453 3.95248C6.61627 3.95248 7.15569 4.17244 7.55725 4.56526C7.95881 4.95808 8.1906 5.49252 8.20296 6.05413Z" fill="#CB8461"/>
</g>
</g>
</svg>
