<svg width="20" height="21" viewBox="0 0 20 21" fill="none" xmlns="http://www.w3.org/2000/svg">
<path d="M10 0.948242C4.47715 0.948242 0 5.42539 0 10.9482C0 16.4711 4.47715 20.9482 10 20.9482C15.5228 20.9482 20 16.4711 20 10.9482C19.9936 5.42806 15.5202 0.954671 10 0.948242Z" fill="#5243C2" fill-opacity="0.103693"/>
<path d="M15.7725 7.78158L10.0683 15.5224C9.93229 15.7029 9.72944 15.8212 9.50535 15.8506C9.28126 15.8801 9.05473 15.8183 8.87667 15.6791L4.80333 12.4224C4.44389 12.1348 4.38568 11.6102 4.67333 11.2507C4.96098 10.8913 5.48555 10.8331 5.845 11.1207L9.24167 13.8382L14.4308 6.79574C14.601 6.5404 14.8977 6.39923 15.2032 6.42827C15.5086 6.45732 15.7734 6.65188 15.8924 6.93472C16.0114 7.21755 15.9653 7.5429 15.7725 7.78158Z" fill="#245D51"/>
</svg>
