<svg width="35" height="35" viewBox="0 0 35 35" fill="none" xmlns="http://www.w3.org/2000/svg">
<g id="gg:play-pause-o">
<rect width="35" height="35" rx="17.5" fill="#CB8461"/>
<g id="Group">
<path id="Vector" d="M13.125 13.125H16.0417V21.875H13.125V13.125Z" fill="white"/>
<path id="Vector_2" d="M21.8752 21.875H18.9585V13.125H21.8752V21.875Z" fill="white"/>
<path id="Vector_3" fill-rule="evenodd" clip-rule="evenodd" d="M33.5418 17.4999C33.5418 26.3593 26.3595 33.5416 17.5002 33.5416C8.64079 33.5416 1.4585 26.3593 1.4585 17.4999C1.4585 8.64054 8.64079 1.45825 17.5002 1.45825C26.3595 1.45825 33.5418 8.64054 33.5418 17.4999ZM30.6252 17.4999C30.6252 19.2235 30.2857 20.9302 29.6261 22.5226C28.9665 24.115 27.9997 25.5619 26.7809 26.7807C25.5622 27.9995 24.1153 28.9662 22.5229 29.6258C20.9305 30.2854 19.2238 30.6249 17.5002 30.6249C15.7766 30.6249 14.0698 30.2854 12.4774 29.6258C10.885 28.9662 9.43815 27.9995 8.21939 26.7807C7.00062 25.5619 6.03384 24.115 5.37424 22.5226C4.71465 20.9302 4.37516 19.2235 4.37516 17.4999C4.37516 14.019 5.75797 10.6806 8.21939 8.21914C10.6808 5.75773 14.0192 4.37492 17.5002 4.37492C20.9811 4.37492 24.3195 5.75773 26.7809 8.21914C29.2424 10.6806 30.6252 14.019 30.6252 17.4999Z" fill="#CB8461"/>
</g>
</g>
</svg>
