<svg width="83" height="83" viewBox="0 0 83 83" fill="none" xmlns="http://www.w3.org/2000/svg">
<g id="bi:play-circle-fill" clip-path="url(#clip0_22_955)">
<rect id="Rectangle 1451" x="17.5417" y="17.5415" width="47.9167" height="47.9167" fill="url(#paint0_linear_22_955)"/>
<g id="Group">
<path id="Vector" d="M82.5716 41.4999C82.5716 52.3927 78.2444 62.8394 70.542 70.5418C62.8396 78.2442 52.393 82.5713 41.5001 82.5713C30.6073 82.5713 20.1606 78.2442 12.4583 70.5418C4.75587 62.8394 0.428711 52.3927 0.428711 41.4999C0.428711 30.6071 4.75587 20.1604 12.4583 12.458C20.1606 4.75562 30.6073 0.428467 41.5001 0.428467C52.393 0.428467 62.8396 4.75562 70.542 12.458C78.2444 20.1604 82.5716 30.6071 82.5716 41.4999ZM35.2881 26.5756C34.9043 26.3023 34.4526 26.1399 33.9826 26.1063C33.5127 26.0726 33.0425 26.1689 32.6236 26.3847C32.2048 26.6005 31.8534 26.9274 31.608 27.3297C31.3625 27.7319 31.2326 28.1939 31.2323 28.6651V54.3347C31.2326 54.8059 31.3625 55.2679 31.608 55.6701C31.8534 56.0724 32.2048 56.3993 32.6236 56.6151C33.0425 56.8309 33.5127 56.9272 33.9826 56.8935C34.4526 56.8599 34.9043 56.6975 35.2881 56.4242L53.2568 43.5894C53.5896 43.352 53.8608 43.0385 54.048 42.675C54.2351 42.3116 54.3327 41.9087 54.3327 41.4999C54.3327 41.0911 54.2351 40.6882 54.048 40.3248C53.8608 39.9613 53.5896 39.6478 53.2568 39.4104L35.2881 26.5756Z" fill="white"/>
</g>
</g>
<defs>
<linearGradient id="paint0_linear_22_955" x1="17.5417" y1="17.5415" x2="65.4584" y2="65.4582" gradientUnits="userSpaceOnUse">
<stop stop-color="#245D51"/>
<stop offset="1" stop-color="#16CCA6"/>
</linearGradient>
<clipPath id="clip0_22_955">
<rect width="82.1429" height="82.1429" fill="white" transform="translate(0.428711 0.428467)"/>
</clipPath>
</defs>
</svg>
